<svg width="25" height="24" viewBox="0 0 25 24" fill="none" xmlns="http://www.w3.org/2000/svg">
<g clip-path="url(#clip0_417_8947)">
<path d="M20.73 3H1.24204C1.00204 3.032 0.802039 3.144 0.642039 3.336C0.482039 3.528 0.402039 3.744 0.402039 3.984C0.402039 4.224 0.482039 4.444 0.642039 4.644C0.802039 4.844 1.00204 4.96 1.24204 4.992H5.10604L4.41004 13.848V14.016C4.41004 14.56 4.60604 15.028 4.99804 15.42C5.39004 15.812 5.85804 16.008 6.40204 16.008H18.666C19.146 16.008 19.566 15.86 19.926 15.564C20.286 15.268 20.514 14.904 20.61 14.472L22.674 5.448C22.706 5.256 22.722 5.104 22.722 4.992C22.722 4.432 22.53 3.96 22.146 3.576C21.762 3.192 21.29 3 20.73 3ZM18.666 13.992H6.40204L7.09804 4.992H20.73L18.666 13.992ZM8.25004 21C8.81004 21 9.28604 20.804 9.67804 20.412C10.07 20.02 10.266 19.544 10.266 18.984C10.266 18.424 10.07 17.952 9.67804 17.568C9.28604 17.184 8.81004 16.992 8.25004 16.992C7.70604 16.992 7.23804 17.184 6.84604 17.568C6.45404 17.952 6.25804 18.424 6.25804 18.984C6.25804 19.544 6.45404 20.02 6.84604 20.412C7.23804 20.804 7.70604 21 8.25004 21ZM17.25 21C17.81 21 18.286 20.804 18.678 20.412C19.07 20.02 19.266 19.544 19.266 18.984C19.266 18.424 19.07 17.952 18.678 17.568C18.286 17.184 17.81 16.992 17.25 16.992C16.706 16.992 16.238 17.184 15.846 17.568C15.454 17.952 15.258 18.424 15.258 18.984C15.258 19.544 15.454 20.02 15.846 20.412C16.238 20.804 16.706 21 17.25 21Z" fill="#0C6C44"/>
</g>
<defs>
<clipPath id="clip0_417_8947">
<rect width="24" height="24" fill="white" transform="matrix(1 0 0 -1 0.257812 24)"/>
</clipPath>
</defs>
</svg>
