<svg width="23" height="18" viewBox="0 0 23 18" fill="none" xmlns="http://www.w3.org/2000/svg">
<path d="M20.73 0H1.24204C1.00204 0.0319996 0.802039 0.143999 0.642039 0.336C0.482039 0.528 0.402039 0.743999 0.402039 0.983999C0.402039 1.224 0.482039 1.444 0.642039 1.644C0.802039 1.844 1.00204 1.96 1.24204 1.992H5.10604L4.41004 10.848V11.016C4.41004 11.56 4.60604 12.028 4.99804 12.42C5.39004 12.812 5.85804 13.008 6.40204 13.008H18.666C19.146 13.008 19.566 12.86 19.926 12.564C20.286 12.268 20.514 11.904 20.61 11.472L22.674 2.448C22.706 2.256 22.722 2.104 22.722 1.992C22.722 1.432 22.53 0.959999 22.146 0.576C21.762 0.191999 21.29 0 20.73 0ZM18.666 10.992H6.40204L7.09804 1.992H20.73L18.666 10.992ZM8.25004 18C8.81004 18 9.28604 17.804 9.67804 17.412C10.07 17.02 10.266 16.544 10.266 15.984C10.266 15.424 10.07 14.952 9.67804 14.568C9.28604 14.184 8.81004 13.992 8.25004 13.992C7.70604 13.992 7.23804 14.184 6.84604 14.568C6.45404 14.952 6.25804 15.424 6.25804 15.984C6.25804 16.544 6.45404 17.02 6.84604 17.412C7.23804 17.804 7.70604 18 8.25004 18ZM17.25 18C17.81 18 18.286 17.804 18.678 17.412C19.07 17.02 19.266 16.544 19.266 15.984C19.266 15.424 19.07 14.952 18.678 14.568C18.286 14.184 17.81 13.992 17.25 13.992C16.706 13.992 16.238 14.184 15.846 14.568C15.454 14.952 15.258 15.424 15.258 15.984C15.258 16.544 15.454 17.02 15.846 17.412C16.238 17.804 16.706 18 17.25 18Z" fill="#0F0F0F" fill-opacity="0.4"/>
</svg>
