<svg width="23" height="22" viewBox="0 0 23 22" fill="none" xmlns="http://www.w3.org/2000/svg">
<path d="M7.70784 9.44087H2.31688C1.77105 9.44036 1.24771 9.22335 0.861685 8.83745C0.475662 8.45154 0.258488 7.92827 0.257812 7.38243V2.05843C0.258488 1.5126 0.475662 0.989326 0.861685 0.603422C1.24771 0.217519 1.77105 0.000506236 2.31688 0H7.70784C8.25357 0.000674984 8.77674 0.217762 9.16263 0.603647C9.54851 0.989532 9.7656 1.51271 9.76628 2.05843V7.38243C9.7656 7.92816 9.54851 8.45134 9.16263 8.83722C8.77674 9.22311 8.25357 9.4402 7.70784 9.44087ZM2.31688 1.5942C2.19376 1.59437 2.07571 1.64331 1.98858 1.73032C1.90146 1.81733 1.85235 1.93531 1.85202 2.05843V7.38243C1.85235 7.50556 1.90146 7.62354 1.98858 7.71055C2.07571 7.79756 2.19376 7.8465 2.31688 7.84667H7.70784C7.83091 7.8465 7.94889 7.79753 8.03592 7.71051C8.12294 7.62349 8.17191 7.50551 8.17207 7.38243V2.05843C8.17191 1.93536 8.12294 1.81738 8.03592 1.73036C7.94889 1.64334 7.83091 1.59437 7.70784 1.5942H2.31688ZM7.73399 22H2.34303C1.79714 21.9993 1.2738 21.7822 0.887791 21.3962C0.501787 21.0102 0.284632 20.4868 0.283957 19.9409V14.6176C0.284633 14.0717 0.501807 13.5485 0.88783 13.1626C1.27385 12.7766 1.7972 12.5596 2.34303 12.5591H7.73399C8.27949 12.5601 8.80234 12.7774 9.18795 13.1632C9.57356 13.5491 9.79047 14.0721 9.79115 14.6176V19.9409C9.79064 20.4865 9.5738 21.0097 9.18818 21.3957C8.80255 21.7817 8.2796 21.999 7.73399 22ZM2.34303 14.1533C2.2199 14.1535 2.10185 14.2024 2.01473 14.2895C1.9276 14.3765 1.8785 14.4944 1.87816 14.6176V19.9409C1.87833 20.0642 1.92736 20.1823 2.0145 20.2695C2.10165 20.3566 2.21979 20.4056 2.34303 20.4058H7.73399C7.85712 20.4055 7.9751 20.3564 8.0621 20.2692C8.14911 20.1821 8.19805 20.0641 8.19822 19.9409V14.6176C8.19805 14.4945 8.14909 14.3765 8.06206 14.2895C7.97504 14.2025 7.85706 14.1535 7.73399 14.1533H2.34303ZM20.1994 22H14.8084C14.2625 21.9993 13.7392 21.7822 13.3532 21.3962C12.9672 21.0102 12.75 20.4868 12.7493 19.9409V14.6176C12.75 14.0717 12.9672 13.5485 13.3532 13.1626C13.7392 12.7766 14.2626 12.5596 14.8084 12.5591H20.1994C20.7451 12.5598 21.2683 12.7769 21.6542 13.1628C22.0401 13.5487 22.2571 14.0718 22.2578 14.6176V19.9409C22.2573 20.4868 22.0403 21.0101 21.6544 21.3961C21.2685 21.7822 20.7452 21.9993 20.1994 22ZM14.8084 14.1565C14.6853 14.1567 14.5672 14.2056 14.4801 14.2926C14.393 14.3796 14.3439 14.4976 14.3436 14.6208V19.9441C14.3437 20.0674 14.3928 20.1855 14.4799 20.2726C14.567 20.3598 14.6852 20.4088 14.8084 20.409H20.1994C20.3225 20.4086 20.4405 20.3595 20.5275 20.2724C20.6145 20.1853 20.6634 20.0672 20.6636 19.9441V14.6176C20.6634 14.4945 20.6145 14.3765 20.5275 14.2895C20.4404 14.2025 20.3224 14.1535 20.1994 14.1533L14.8084 14.1565ZM17.5071 9.44087C16.5753 9.43394 15.6664 9.15131 14.8951 8.62861C14.1237 8.1059 13.5243 7.36652 13.1725 6.50368C12.8207 5.64084 12.7323 4.69316 12.9183 3.78012C13.1043 2.86708 13.5565 2.02954 14.2178 1.3731C14.8791 0.716666 15.72 0.270711 16.6344 0.0914577C17.5488 -0.0877952 18.4958 0.0076791 19.356 0.365845C20.2162 0.72401 20.9511 1.32883 21.4681 2.10406C21.9851 2.87929 22.261 3.79023 22.261 4.72203C22.2548 5.9777 21.7508 7.17964 20.8596 8.06425C19.9684 8.94886 18.7628 9.44392 17.5071 9.44087ZM17.5071 1.59739C16.8906 1.60431 16.29 1.79343 15.7808 2.14095C15.2716 2.48847 14.8766 2.97886 14.6454 3.55038C14.4143 4.12191 14.3574 4.74904 14.4819 5.35283C14.6064 5.95662 14.9067 6.51009 15.3451 6.94358C15.7834 7.37707 16.3402 7.6712 16.9454 7.78895C17.5505 7.9067 18.177 7.8428 18.7459 7.60531C19.3148 7.36782 19.8007 6.96734 20.1425 6.45428C20.4844 5.94123 20.6668 5.33852 20.6668 4.72203C20.6617 3.88851 20.3262 3.09105 19.7338 2.50464C19.1414 1.91824 18.3406 1.59081 17.5071 1.5942V1.59739Z" fill="#0F0F0F" fill-opacity="0.4"/>
</svg>
