<svg width="22" height="22" viewBox="0 0 22 22" fill="none" xmlns="http://www.w3.org/2000/svg">
<path d="M18.2578 21.42H4.25781C2.18781 21.42 0.507812 19.74 0.507812 17.67V9.22996C0.507812 8.00996 1.10781 6.85996 2.10781 6.15996L9.10781 1.25996C10.3978 0.359961 12.1278 0.359961 13.4078 1.25996L20.4078 6.15996C21.4078 6.85996 22.0078 8.00996 22.0078 9.22996V17.67C22.0078 19.74 20.3278 21.42 18.2578 21.42ZM11.2578 2.07996C10.8078 2.07996 10.3578 2.21996 9.96781 2.48996L2.96781 7.38996C2.36781 7.80996 2.00781 8.49996 2.00781 9.22996V17.67C2.00781 18.91 3.01781 19.92 4.25781 19.92H18.2578C19.4978 19.92 20.5078 18.91 20.5078 17.67V9.22996C20.5078 8.49996 20.1478 7.80996 19.5478 7.38996L12.5478 2.48996C12.1578 2.21996 11.7078 2.08996 11.2578 2.08996V2.07996Z" fill="#0C6C44"/>
<path d="M15.2578 21.4199H7.25781C6.84781 21.4199 6.50781 21.0799 6.50781 20.6699V15.6699C6.50781 13.0499 8.63781 10.9199 11.2578 10.9199C13.8778 10.9199 16.0078 13.0499 16.0078 15.6699V20.6699C16.0078 21.0799 15.6678 21.4199 15.2578 21.4199ZM8.00781 19.9199H14.5078V15.6699C14.5078 13.8799 13.0478 12.4199 11.2578 12.4199C9.46781 12.4199 8.00781 13.8799 8.00781 15.6699V19.9199Z" fill="#0C6C44"/>
</svg>
