<svg width="18" height="14" viewBox="0 0 18 14" fill="none" xmlns="http://www.w3.org/2000/svg">
<path d="M16.7578 6.16657H3.7695L8.18034 1.75574C8.25993 1.67887 8.32342 1.58691 8.36709 1.48524C8.41076 1.38357 8.43375 1.27422 8.43471 1.16357C8.43568 1.05292 8.41459 0.94319 8.37269 0.840777C8.33079 0.738363 8.26891 0.645319 8.19067 0.567076C8.11242 0.488832 8.01938 0.426954 7.91697 0.385053C7.81455 0.343153 7.70482 0.322068 7.59417 0.32303C7.48352 0.323991 7.37417 0.34698 7.2725 0.390654C7.17083 0.434328 7.07888 0.497813 7.002 0.577405L1.16867 6.41074C1.01245 6.56701 0.924683 6.77893 0.924683 6.99991C0.924683 7.22088 1.01245 7.4328 1.16867 7.58907L7.002 13.4224C7.15917 13.5742 7.36967 13.6582 7.58817 13.6563C7.80667 13.6544 8.01568 13.5668 8.17019 13.4123C8.32469 13.2577 8.41233 13.0487 8.41423 12.8302C8.41613 12.6117 8.33214 12.4012 8.18034 12.2441L3.7695 7.83324H16.7578C16.9789 7.83324 17.1908 7.74544 17.3471 7.58916C17.5034 7.43288 17.5912 7.22092 17.5912 6.99991C17.5912 6.77889 17.5034 6.56693 17.3471 6.41065C17.1908 6.25437 16.9789 6.16657 16.7578 6.16657Z" fill="#0F0F0F"/>
</svg>
