<svg width="21" height="20" viewBox="0 0 21 20" fill="none" xmlns="http://www.w3.org/2000/svg">
<g clip-path="url(#clip0_417_7149)">
<path d="M20.2578 10C20.2578 14.9914 16.6008 19.1285 11.8203 19.8785V12.8906H14.1504L14.5938 10H11.8203V8.12422C11.8203 7.3332 12.2078 6.5625 13.45 6.5625H14.7109V4.10156C14.7109 4.10156 13.5664 3.90625 12.4723 3.90625C10.1883 3.90625 8.69531 5.29063 8.69531 7.79688V10H6.15625V12.8906H8.69531V19.8785C3.91484 19.1285 0.257812 14.9914 0.257812 10C0.257812 4.47734 4.73516 0 10.2578 0C15.7805 0 20.2578 4.47734 20.2578 10Z" fill="#1877F2"/>
<path d="M14.1504 12.8906L14.5938 10H11.8203V8.12418C11.8203 7.33336 12.2077 6.5625 13.45 6.5625H14.7109V4.10156C14.7109 4.10156 13.5666 3.90625 12.4725 3.90625C10.1882 3.90625 8.69531 5.29063 8.69531 7.79688V10H6.15625V12.8906H8.69531V19.8785C9.20445 19.9584 9.72625 20 10.2578 20C10.7894 20 11.3112 19.9584 11.8203 19.8785V12.8906H14.1504Z" fill="white"/>
</g>
<defs>
<clipPath id="clip0_417_7149">
<rect width="20" height="20" fill="white" transform="translate(0.257812)"/>
</clipPath>
</defs>
</svg>
