<svg width="21" height="20" viewBox="0 0 21 20" fill="none" xmlns="http://www.w3.org/2000/svg">
<path d="M19.0089 10.1932C19.0089 9.47373 18.9493 8.94873 18.8204 8.4043H10.4375V11.6515H15.3581C15.2589 12.4585 14.7232 13.6737 13.5327 14.4904L13.516 14.5991L16.1666 16.6113L16.3502 16.6293C18.0367 15.1029 19.0089 12.857 19.0089 10.1932Z" fill="#4285F4"/>
<path d="M10.4371 18.7519C12.8478 18.7519 14.8716 17.9741 16.3498 16.6325L13.5323 14.4935C12.7784 15.0088 11.7664 15.3685 10.4371 15.3685C8.07603 15.3685 6.07209 13.8422 5.35774 11.7324L5.25303 11.7411L2.49698 13.8314L2.46094 13.9296C3.92917 16.788 6.94504 18.7519 10.4371 18.7519Z" fill="#34A853"/>
<path d="M5.35698 11.7302C5.16849 11.1858 5.0594 10.6024 5.0594 9.99967C5.0594 9.39686 5.16849 8.81355 5.34706 8.26911L5.34207 8.15316L2.55147 6.0293L2.46017 6.07186C1.85504 7.25798 1.50781 8.58995 1.50781 9.99967C1.50781 11.4094 1.85504 12.7413 2.46017 13.9274L5.35698 11.7302Z" fill="#FBBC05"/>
<path d="M10.4372 4.63331C12.1137 4.63331 13.2447 5.34303 13.8895 5.93612L16.4094 3.525C14.8618 2.11528 12.8478 1.25 10.4372 1.25C6.94506 1.25 3.92918 3.21387 2.46094 6.07218L5.34784 8.26944C6.07211 6.15972 8.07606 4.63331 10.4372 4.63331Z" fill="#EB4335"/>
</svg>
