<svg width="13" height="15" viewBox="0 0 13 15" fill="none" xmlns="http://www.w3.org/2000/svg">
<path d="M11.0881 1.85819C9.88987 0.659915 8.29667 0 6.60208 0C4.90748 0 3.31425 0.659915 2.116 1.85819C0.917727 3.0565 0.257812 4.64967 0.257812 6.34423C0.257812 9.77233 3.49917 12.6237 5.24056 14.1555C5.48255 14.3684 5.69153 14.5522 5.85802 14.7077C6.06662 14.9026 6.33436 15 6.60205 15C6.86979 15 7.13748 14.9026 7.3461 14.7077C7.5126 14.5522 7.72157 14.3684 7.96357 14.1555C9.70495 12.6236 12.9463 9.77233 12.9463 6.34423C12.9463 4.64967 12.2864 3.0565 11.0881 1.85819ZM7.38319 13.4958C7.1359 13.7133 6.92235 13.9012 6.74628 14.0656C6.66539 14.1411 6.53871 14.1412 6.45779 14.0656C6.28174 13.9011 6.06817 13.7133 5.82087 13.4957C4.18376 12.0557 1.13643 9.37501 1.13643 6.34426C1.13643 3.33054 3.58827 0.878705 6.60202 0.878705C9.61574 0.878705 12.0676 3.33054 12.0676 6.34426C12.0676 9.37501 9.02031 12.0557 7.38319 13.4958Z" fill="white"/>
<path d="M6.60004 3.3125C5.0584 3.3125 3.8042 4.56667 3.8042 6.10831C3.8042 7.64995 5.0584 8.90412 6.60004 8.90412C8.14168 8.90412 9.39585 7.64995 9.39585 6.10831C9.39585 4.56667 8.14168 3.3125 6.60004 3.3125ZM6.60004 8.02542C5.54292 8.02542 4.68287 7.16538 4.68287 6.10828C4.68287 5.05119 5.54292 4.19115 6.60004 4.19115C7.65716 4.19115 8.51718 5.05119 8.51718 6.10828C8.51718 7.16538 7.65716 8.02542 6.60004 8.02542Z" fill="white"/>
</svg>
