<svg width="20" height="22" viewBox="0 0 20 22" fill="none" xmlns="http://www.w3.org/2000/svg">
<path d="M12.7118 9.26C11.8798 9.79733 10.9785 10.066 10.0078 10.066C9.36648 10.066 8.74681 9.94033 8.14881 9.689C7.55081 9.43767 7.02215 9.08667 6.56281 8.636C6.10348 8.18533 5.75248 7.661 5.50981 7.063C5.26715 6.465 5.14581 5.84534 5.14581 5.204C5.14581 4.19867 5.41881 3.28867 5.96481 2.474C6.51081 1.65933 7.23015 1.06567 8.12281 0.693001C9.01548 0.320335 9.96448 0.229334 10.9698 0.420002C11.9058 0.593334 12.7291 1.031 13.4398 1.733C14.1505 2.435 14.5968 3.267 14.7788 4.229C14.9608 5.191 14.8698 6.13133 14.5058 7.05C14.1418 7.96867 13.5438 8.70533 12.7118 9.26ZM11.5158 2.942C11.0651 2.64734 10.5625 2.5 10.0078 2.5C9.27981 2.5 8.63848 2.76 8.08381 3.28C7.56381 3.83467 7.30381 4.476 7.30381 5.204C7.30381 5.75867 7.45548 6.26133 7.75881 6.712C8.06215 7.16267 8.46515 7.492 8.96781 7.7C9.47048 7.908 9.99048 7.96 10.5278 7.856C11.0651 7.752 11.5288 7.505 11.9188 7.115C12.3088 6.725 12.5558 6.26133 12.6598 5.724C12.7638 5.18667 12.7118 4.66667 12.5038 4.164C12.2958 3.66133 11.9665 3.254 11.5158 2.942ZM3.11781 14.018C4.01915 13.0993 5.06781 12.393 6.26381 11.899C7.45981 11.405 8.70781 11.158 10.0078 11.158C11.3078 11.158 12.5558 11.405 13.7518 11.899C14.9478 12.393 16.0008 13.095 16.9108 14.005C17.8208 14.915 18.5228 15.968 19.0168 17.164C19.5108 18.36 19.7578 19.608 19.7578 20.908C19.7578 21.22 19.6451 21.48 19.4198 21.688C19.1945 21.896 18.9431 22 18.6658 22H13.2578C12.9631 22 12.7075 21.8917 12.4908 21.675C12.2741 21.4583 12.1658 21.2027 12.1658 20.908C12.1658 20.6133 12.2741 20.3577 12.4908 20.141C12.7075 19.9243 12.9631 19.816 13.2578 19.816H17.5218C17.3831 18.9147 17.0971 18.061 16.6638 17.255C16.2305 16.449 15.6671 15.7513 14.9738 15.162C14.2805 14.5727 13.5091 14.1177 12.6598 13.797C11.8105 13.4763 10.9265 13.316 10.0078 13.316C9.08915 13.316 8.20515 13.4763 7.35581 13.797C6.50648 14.1177 5.73515 14.5727 5.04181 15.162C4.34848 15.7513 3.78515 16.449 3.35181 17.255C2.91848 18.061 2.63248 18.9147 2.49381 19.816H6.75781C7.03515 19.816 7.29515 19.92 7.53781 20.128C7.74581 20.3707 7.84981 20.6307 7.84981 20.908C7.84981 21.1853 7.74581 21.4453 7.53781 21.688C7.29515 21.896 7.03515 22 6.75781 22H1.34981C1.07248 22 0.821146 21.896 0.595812 21.688C0.370479 21.48 0.257812 21.22 0.257812 20.908C0.257812 19.608 0.504813 18.3643 0.998812 17.177C1.49281 15.9897 2.19915 14.9367 3.11781 14.018Z" fill="#0F0F0F" fill-opacity="0.4"/>
</svg>
