<svg width="15" height="14" viewBox="0 0 15 14" fill="none" xmlns="http://www.w3.org/2000/svg">
<path d="M14.1109 13.069L11.3885 10.3448C11.8595 9.7931 12.2271 9.16954 12.4913 8.47414C12.7555 7.77874 12.8876 7.05747 12.8876 6.31035C12.8876 5.17241 12.6004 4.11494 12.026 3.13793C11.4747 2.18391 10.7223 1.42529 9.76889 0.862069C8.79251 0.287356 7.72998 0 6.5813 0C5.43262 0 4.37009 0.287356 3.39371 0.862069C2.44031 1.41379 1.68218 2.16092 1.11932 3.10345C0.544983 4.09195 0.257812 5.15805 0.257812 6.30172C0.257812 7.4454 0.544983 8.50575 1.11932 9.48276C1.67069 10.4368 2.41733 11.1954 3.35925 11.7586C4.34712 12.3448 5.41539 12.6379 6.56407 12.6379C7.31071 12.6379 8.03151 12.5057 8.72646 12.2414C9.42141 11.977 10.0446 11.6092 10.5959 11.1379L13.3183 13.8621C13.3528 13.8966 13.4045 13.9282 13.4734 13.9569C13.5423 13.9856 13.6112 14 13.6801 14C13.7491 14 13.818 13.9856 13.8869 13.9569C13.9558 13.9282 14.0075 13.8966 14.042 13.8621C14.1798 13.7241 14.2516 13.5862 14.2574 13.4483C14.2631 13.3103 14.2143 13.1839 14.1109 13.069ZM1.39501 6.24138C1.39501 5.29885 1.63049 4.42529 2.10144 3.62069C2.56092 2.85058 3.17546 2.23563 3.94508 1.77586C4.74915 1.3046 5.62215 1.06897 6.56407 1.06897C7.50599 1.06897 8.37899 1.31035 9.18306 1.7931C9.96416 2.25287 10.5845 2.87931 11.0439 3.67241C11.5034 4.46552 11.7331 5.32759 11.7331 6.25862C11.7331 7.18966 11.4919 8.05747 11.0095 8.86207C10.55 9.64368 9.92396 10.2644 9.13137 10.7241C8.33878 11.1839 7.48301 11.4138 6.56407 11.4138C5.63364 11.4368 4.76064 11.2126 3.94508 10.7414C3.17546 10.2931 2.55805 9.66667 2.09283 8.86207C1.62761 8.05747 1.39501 7.18391 1.39501 6.24138Z" fill="#0F0F0F" fill-opacity="0.6"/>
</svg>
